<?xml version="1.0" encoding="utf-8" standalone="no"?>
<!-- Created with Inkscape (http://www.inkscape.org/) -->
<?xml-stylesheet href="AT_svg.css" type="text/css"?>
<svg xmlns:dc="http://purl.org/dc/elements/1.1/"
xmlns:cc="http://creativecommons.org/ns#"
xmlns:rdf="http://www.w3.org/1999/02/22-rdf-syntax-ns#"
xmlns:svg="http://www.w3.org/2000/svg"
xmlns="http://www.w3.org/2000/svg"
xmlns:sodipodi="http://sodipodi.sourceforge.net/DTD/sodipodi-0.dtd"
xmlns:inkscape="http://www.inkscape.org/namespaces/inkscape"
version="1.1" width="54.060059" height="288.625" id="svg3004"
xml:space="preserve" inkscape:version="0.48.2 r9819"
sodipodi:docname="grid_left.svg">
<sodipodi:namedview pagecolor="#ffffff" bordercolor="#666666"
borderopacity="1" objecttolerance="10" gridtolerance="10"
guidetolerance="10" inkscape:pageopacity="0"
inkscape:pageshadow="2" inkscape:window-width="1560"
inkscape:window-height="990" id="namedview204610" showgrid="false"
inkscape:zoom="1.4142136" inkscape:cx="155.68134"
inkscape:cy="200.88104" inkscape:window-x="0" inkscape:window-y="0"
inkscape:window-maximized="0" inkscape:current-layer="svg3004"
fit-margin-top="0" fit-margin-left="0" fit-margin-right="0"
fit-margin-bottom="0" />
<metadata id="metadata3010">
  <rdf:RDF>
    <cc:Work rdf:about="">
      <dc:format>image/svg+xml</dc:format>
      <dc:type rdf:resource="http://purl.org/dc/dcmitype/StillImage" />
      <dc:title />
    </cc:Work>
  </rdf:RDF>
</metadata>
<defs id="defs3008" />








<g id="g50464" transform="translate(-41.289288,-35.6875)">
<g transform="matrix(1.25,0,0,-1.25,90.349347,324)" id="g15264"
class="style-01">
  <g id="g15266">
    <path d="M 0,0 0,2" id="path15274"
    inkscape:connector-curvature="0" class="style-04" />
  </g>
</g>
<g transform="matrix(1.25,0,0,-1.25,90.349347,36)" id="g15276"
class="style-01">
  <g id="g15278">
    <path d="M 0,0 0,-2" id="path15286"
    inkscape:connector-curvature="0" class="style-04" />
  </g>
</g>
<g transform="matrix(1.25,0,0,-1.25,90.349347,308)" id="g67636"
class="style-01">
  <g id="g67638">
    <path d="M 0,0 4,0" id="path67646"
    inkscape:connector-curvature="0" class="style-04" />
  </g>
</g>
<text y="312.10156" x="79.685287" id="text67660" class="style-15">
  <tspan x="79.685287" y="312.10156" id="tspan67662"
  class="style-16">0</tspan>
</text>
<g transform="matrix(1.25,0,0,-1.25,90.349347,276)" id="g67664"
class="style-01">
  <g id="g67666">
    <path d="M 0,0 4,0" id="path67674"
    inkscape:connector-curvature="0" class="style-04" />
  </g>
</g>
<text y="280.10156" x="58.669659" id="text67688" class="style-15">
  <tspan x="58.669659 65.824661 72.97966 80.134659" y="280.10156"
  id="tspan67690" class="style-16">1000</tspan>
</text>
<g transform="matrix(1.25,0,0,-1.25,90.349347,244)" id="g67692"
class="style-01">
  <g id="g67694">
    <path d="M 0,0 4,0" id="path67702"
    inkscape:connector-curvature="0" class="style-04" />
  </g>
</g>
<text y="248.10156" x="58.259502" id="text67716" class="style-15">
  <tspan x="58.259502 65.414505 72.569504 79.724503" y="248.10156"
  id="tspan67718" class="style-16">2000</tspan>
</text>
<g transform="matrix(1.25,0,0,-1.25,90.349347,212)" id="g67720"
class="style-01">
  <g id="g67722">
    <path d="M 0,0 4,0" id="path67730"
    inkscape:connector-curvature="0" class="style-04" />
  </g>
</g>
<text y="216.10156" x="58.298565" id="text67744" class="style-15">
  <tspan x="58.298565 65.453568 72.608566 79.763565" y="216.10156"
  id="tspan67746" class="style-16">3000</tspan>
</text>
<g transform="matrix(1.25,0,0,-1.25,90.349347,180)" id="g67748"
class="style-01">
  <g id="g67750">
    <path d="M 0,0 4,0" id="path67758"
    inkscape:connector-curvature="0" class="style-04" />
  </g>
</g>
<text y="184.10156" x="57.986065" id="text67772" class="style-15">
  <tspan x="57.986065 65.141068 72.296066 79.451065" y="184.10156"
  id="tspan67774" class="style-16">4000</tspan>
</text>
<g transform="matrix(1.25,0,0,-1.25,90.349347,148)" id="g67776"
class="style-01">
  <g id="g67778">
    <path d="M 0,0 4,0" id="path67786"
    inkscape:connector-curvature="0" class="style-04" />
  </g>
</g>
<text y="152.10156" x="58.318096" id="text67800" class="style-15">
  <tspan x="58.318096 65.473099 72.628098 79.783096" y="152.10156"
  id="tspan67802" class="style-16">5000</tspan>
</text>
<g transform="matrix(1.25,0,0,-1.25,90.349347,116)" id="g67804"
class="style-01">
  <g id="g67806">
    <path d="M 0,0 4,0" id="path67814"
    inkscape:connector-curvature="0" class="style-04" />
  </g>
</g>
<text y="120.10156" x="58.22044" id="text67828" class="style-15">
  <tspan x="58.22044 65.375443 72.530441 79.68544" y="120.10156"
  id="tspan67830" class="style-16">6000</tspan>
</text>
<g transform="matrix(1.25,0,0,-1.25,90.349347,84)" id="g67832"
class="style-01">
  <g id="g67834">
    <path d="M 0,0 4,0" id="path67842"
    inkscape:connector-curvature="0" class="style-04" />
  </g>
</g>
<text y="88.101562" x="58.357159" id="text67856" class="style-15">
  <tspan x="58.357159 65.512161 72.66716 79.822159" y="88.101562"
  id="tspan67858" class="style-16">7000</tspan>
</text>
<g transform="matrix(1.25,0,0,-1.25,90.349347,52)" id="g67860"
class="style-01">
  <g id="g67862">
    <path d="M 0,0 4,0" id="path67870"
    inkscape:connector-curvature="0" class="style-04" />
  </g>
</g>
<text y="56.101562" x="58.200909" id="text67884" class="style-15">
  <tspan x="58.200909 65.355911 72.51091 79.665909" y="56.101562"
  id="tspan67886" class="style-16">8000</tspan>
</text>
<g transform="matrix(1.25,0,0,-1.25,90.349347,324)" id="g67888"
class="style-01">
  <g id="g67890">
    <path d="M 0,0 2,0" id="path67898"
    inkscape:connector-curvature="0" class="style-04" />
  </g>
</g>
<g transform="matrix(1.25,0,0,-1.25,90.349347,320.8)" id="g67912"
class="style-01">
  <g id="g67914">
    <path d="M 0,0 2,0" id="path67922"
    inkscape:connector-curvature="0" class="style-04" />
  </g>
</g>
<g transform="matrix(1.25,0,0,-1.25,90.349347,317.6)" id="g67936"
class="style-01">
  <g id="g67938">
    <path d="M 0,0 2,0" id="path67946"
    inkscape:connector-curvature="0" class="style-04" />
  </g>
</g>
<g transform="matrix(1.25,0,0,-1.25,90.349347,314.4)" id="g67960"
class="style-01">
  <g id="g67962">
    <path d="M 0,0 2,0" id="path67970"
    inkscape:connector-curvature="0" class="style-04" />
  </g>
</g>
<g transform="matrix(1.25,0,0,-1.25,90.349347,311.2)" id="g67984"
class="style-01">
  <g id="g67986">
    <path d="M 0,0 2,0" id="path67994"
    inkscape:connector-curvature="0" class="style-04" />
  </g>
</g>
<g transform="matrix(1.25,0,0,-1.25,90.349347,308)" id="g68008"
class="style-01">
  <g id="g68010">
    <path d="M 0,0 2,0" id="path68018"
    inkscape:connector-curvature="0" class="style-04" />
  </g>
</g>
<g transform="matrix(1.25,0,0,-1.25,90.349347,304.8)" id="g68032"
class="style-01">
  <g id="g68034">
    <path d="M 0,0 2,0" id="path68042"
    inkscape:connector-curvature="0" class="style-04" />
  </g>
</g>
<g transform="matrix(1.25,0,0,-1.25,90.349347,301.6)" id="g68056"
class="style-01">
  <g id="g68058">
    <path d="M 0,0 2,0" id="path68066"
    inkscape:connector-curvature="0" class="style-04" />
  </g>
</g>
<g transform="matrix(1.25,0,0,-1.25,90.349347,298.4)" id="g68080"
class="style-01">
  <g id="g68082">
    <path d="M 0,0 2,0" id="path68090"
    inkscape:connector-curvature="0" class="style-04" />
  </g>
</g>
<g transform="matrix(1.25,0,0,-1.25,90.349347,295.2)" id="g68104"
class="style-01">
  <g id="g68106">
    <path d="M 0,0 2,0" id="path68114"
    inkscape:connector-curvature="0" class="style-04" />
  </g>
</g>
<g transform="matrix(1.25,0,0,-1.25,90.349347,292)" id="g68128"
class="style-01">
  <g id="g68130">
    <path d="M 0,0 2,0" id="path68138"
    inkscape:connector-curvature="0" class="style-04" />
  </g>
</g>
<g transform="matrix(1.25,0,0,-1.25,90.349347,288.8)" id="g68152"
class="style-01">
  <g id="g68154">
    <path d="M 0,0 2,0" id="path68162"
    inkscape:connector-curvature="0" class="style-04" />
  </g>
</g>
<g transform="matrix(1.25,0,0,-1.25,90.349347,285.6)" id="g68176"
class="style-01">
  <g id="g68178">
    <path d="M 0,0 2,0" id="path68186"
    inkscape:connector-curvature="0" class="style-04" />
  </g>
</g>
<g transform="matrix(1.25,0,0,-1.25,90.349347,282.4)" id="g68200"
class="style-01">
  <g id="g68202">
    <path d="M 0,0 2,0" id="path68210"
    inkscape:connector-curvature="0" class="style-04" />
  </g>
</g>
<g transform="matrix(1.25,0,0,-1.25,90.349347,279.2)" id="g68224"
class="style-01">
  <g id="g68226">
    <path d="M 0,0 2,0" id="path68234"
    inkscape:connector-curvature="0" class="style-04" />
  </g>
</g>
<g transform="matrix(1.25,0,0,-1.25,90.349347,276)" id="g68248"
class="style-01">
  <g id="g68250">
    <path d="M 0,0 2,0" id="path68258"
    inkscape:connector-curvature="0" class="style-04" />
  </g>
</g>
<g transform="matrix(1.25,0,0,-1.25,90.349347,272.8)" id="g68272"
class="style-01">
  <g id="g68274">
    <path d="M 0,0 2,0" id="path68282"
    inkscape:connector-curvature="0" class="style-04" />
  </g>
</g>
<g transform="matrix(1.25,0,0,-1.25,90.349347,269.6)" id="g68296"
class="style-01">
  <g id="g68298">
    <path d="M 0,0 2,0" id="path68306"
    inkscape:connector-curvature="0" class="style-04" />
  </g>
</g>
<g transform="matrix(1.25,0,0,-1.25,90.349347,266.4)" id="g68320"
class="style-01">
  <g id="g68322">
    <path d="M 0,0 2,0" id="path68330"
    inkscape:connector-curvature="0" class="style-04" />
  </g>
</g>
<g transform="matrix(1.25,0,0,-1.25,90.349347,263.2)" id="g68344"
class="style-01">
  <g id="g68346">
    <path d="M 0,0 2,0" id="path68354"
    inkscape:connector-curvature="0" class="style-04" />
  </g>
</g>
<g transform="matrix(1.25,0,0,-1.25,90.349347,260)" id="g68368"
class="style-01">
  <g id="g68370">
    <path d="M 0,0 2,0" id="path68378"
    inkscape:connector-curvature="0" class="style-04" />
  </g>
</g>
<g transform="matrix(1.25,0,0,-1.25,90.349347,256.8)" id="g68392"
class="style-01">
  <g id="g68394">
    <path d="M 0,0 2,0" id="path68402"
    inkscape:connector-curvature="0" class="style-04" />
  </g>
</g>
<g transform="matrix(1.25,0,0,-1.25,90.349347,253.6)" id="g68416"
class="style-01">
  <g id="g68418">
    <path d="M 0,0 2,0" id="path68426"
    inkscape:connector-curvature="0" class="style-04" />
  </g>
</g>
<g transform="matrix(1.25,0,0,-1.25,90.349347,250.4)" id="g68440"
class="style-01">
  <g id="g68442">
    <path d="M 0,0 2,0" id="path68450"
    inkscape:connector-curvature="0" class="style-04" />
  </g>
</g>
<g transform="matrix(1.25,0,0,-1.25,90.349347,247.2)" id="g68464"
class="style-01">
  <g id="g68466">
    <path d="M 0,0 2,0" id="path68474"
    inkscape:connector-curvature="0" class="style-04" />
  </g>
</g>
<g transform="matrix(1.25,0,0,-1.25,90.349347,244)" id="g68488"
class="style-01">
  <g id="g68490">
    <path d="M 0,0 2,0" id="path68498"
    inkscape:connector-curvature="0" class="style-04" />
  </g>
</g>
<g transform="matrix(1.25,0,0,-1.25,90.349347,240.8)" id="g68512"
class="style-01">
  <g id="g68514">
    <path d="M 0,0 2,0" id="path68522"
    inkscape:connector-curvature="0" class="style-04" />
  </g>
</g>
<g transform="matrix(1.25,0,0,-1.25,90.349347,237.6)" id="g68536"
class="style-01">
  <g id="g68538">
    <path d="M 0,0 2,0" id="path68546"
    inkscape:connector-curvature="0" class="style-04" />
  </g>
</g>
<g transform="matrix(1.25,0,0,-1.25,90.349347,234.4)" id="g68560"
class="style-01">
  <g id="g68562">
    <path d="M 0,0 2,0" id="path68570"
    inkscape:connector-curvature="0" class="style-04" />
  </g>
</g>
<g transform="matrix(1.25,0,0,-1.25,90.349347,231.2)" id="g68584"
class="style-01">
  <g id="g68586">
    <path d="M 0,0 2,0" id="path68594"
    inkscape:connector-curvature="0" class="style-04" />
  </g>
</g>
<g transform="matrix(1.25,0,0,-1.25,90.349347,228)" id="g68608"
class="style-01">
  <g id="g68610">
    <path d="M 0,0 2,0" id="path68618"
    inkscape:connector-curvature="0" class="style-04" />
  </g>
</g>
<g transform="matrix(1.25,0,0,-1.25,90.349347,224.8)" id="g68632"
class="style-01">
  <g id="g68634">
    <path d="M 0,0 2,0" id="path68642"
    inkscape:connector-curvature="0" class="style-04" />
  </g>
</g>
<g transform="matrix(1.25,0,0,-1.25,90.349347,221.6)" id="g68656"
class="style-01">
  <g id="g68658">
    <path d="M 0,0 2,0" id="path68666"
    inkscape:connector-curvature="0" class="style-04" />
  </g>
</g>
<g transform="matrix(1.25,0,0,-1.25,90.349347,218.4)" id="g68680"
class="style-01">
  <g id="g68682">
    <path d="M 0,0 2,0" id="path68690"
    inkscape:connector-curvature="0" class="style-04" />
  </g>
</g>
<g transform="matrix(1.25,0,0,-1.25,90.349347,215.2)" id="g68704"
class="style-01">
  <g id="g68706">
    <path d="M 0,0 2,0" id="path68714"
    inkscape:connector-curvature="0" class="style-04" />
  </g>
</g>
<g transform="matrix(1.25,0,0,-1.25,90.349347,212)" id="g68728"
class="style-01">
  <g id="g68730">
    <path d="M 0,0 2,0" id="path68738"
    inkscape:connector-curvature="0" class="style-04" />
  </g>
</g>
<g transform="matrix(1.25,0,0,-1.25,90.349347,208.8)" id="g68752"
class="style-01">
  <g id="g68754">
    <path d="M 0,0 2,0" id="path68762"
    inkscape:connector-curvature="0" class="style-04" />
  </g>
</g>
<g transform="matrix(1.25,0,0,-1.25,90.349347,205.6)" id="g68776"
class="style-01">
  <g id="g68778">
    <path d="M 0,0 2,0" id="path68786"
    inkscape:connector-curvature="0" class="style-04" />
  </g>
</g>
<g transform="matrix(1.25,0,0,-1.25,90.349347,202.4)" id="g68800"
class="style-01">
  <g id="g68802">
    <path d="M 0,0 2,0" id="path68810"
    inkscape:connector-curvature="0" class="style-04" />
  </g>
</g>
<g transform="matrix(1.25,0,0,-1.25,90.349347,199.2)" id="g68824"
class="style-01">
  <g id="g68826">
    <path d="M 0,0 2,0" id="path68834"
    inkscape:connector-curvature="0" class="style-04" />
  </g>
</g>
<g transform="matrix(1.25,0,0,-1.25,90.349347,196)" id="g68848"
class="style-01">
  <g id="g68850">
    <path d="M 0,0 2,0" id="path68858"
    inkscape:connector-curvature="0" class="style-04" />
  </g>
</g>
<g transform="matrix(1.25,0,0,-1.25,90.349347,192.8)" id="g68872"
class="style-01">
  <g id="g68874">
    <path d="M 0,0 2,0" id="path68882"
    inkscape:connector-curvature="0" class="style-04" />
  </g>
</g>
<g transform="matrix(1.25,0,0,-1.25,90.349347,189.6)" id="g68896"
class="style-01">
  <g id="g68898">
    <path d="M 0,0 2,0" id="path68906"
    inkscape:connector-curvature="0" class="style-04" />
  </g>
</g>
<g transform="matrix(1.25,0,0,-1.25,90.349347,186.4)" id="g68920"
class="style-01">
  <g id="g68922">
    <path d="M 0,0 2,0" id="path68930"
    inkscape:connector-curvature="0" class="style-04" />
  </g>
</g>
<g transform="matrix(1.25,0,0,-1.25,90.349347,183.2)" id="g68944"
class="style-01">
  <g id="g68946">
    <path d="M 0,0 2,0" id="path68954"
    inkscape:connector-curvature="0" class="style-04" />
  </g>
</g>
<g transform="matrix(1.25,0,0,-1.25,90.349347,180)" id="g68968"
class="style-01">
  <g id="g68970">
    <path d="M 0,0 2,0" id="path68978"
    inkscape:connector-curvature="0" class="style-04" />
  </g>
</g>
<g transform="matrix(1.25,0,0,-1.25,90.349347,176.8)" id="g68992"
class="style-01">
  <g id="g68994">
    <path d="M 0,0 2,0" id="path69002"
    inkscape:connector-curvature="0" class="style-04" />
  </g>
</g>
<g transform="matrix(1.25,0,0,-1.25,90.349347,173.6)" id="g69016"
class="style-01">
  <g id="g69018">
    <path d="M 0,0 2,0" id="path69026"
    inkscape:connector-curvature="0" class="style-04" />
  </g>
</g>
<g transform="matrix(1.25,0,0,-1.25,90.349347,170.4)" id="g69040"
class="style-01">
  <g id="g69042">
    <path d="M 0,0 2,0" id="path69050"
    inkscape:connector-curvature="0" class="style-04" />
  </g>
</g>
<g transform="matrix(1.25,0,0,-1.25,90.349347,167.2)" id="g69064"
class="style-01">
  <g id="g69066">
    <path d="M 0,0 2,0" id="path69074"
    inkscape:connector-curvature="0" class="style-04" />
  </g>
</g>
<g transform="matrix(1.25,0,0,-1.25,90.349347,164)" id="g69088"
class="style-01">
  <g id="g69090">
    <path d="M 0,0 2,0" id="path69098"
    inkscape:connector-curvature="0" class="style-04" />
  </g>
</g>
<g transform="matrix(1.25,0,0,-1.25,90.349347,160.8)" id="g69112"
class="style-01">
  <g id="g69114">
    <path d="M 0,0 2,0" id="path69122"
    inkscape:connector-curvature="0" class="style-04" />
  </g>
</g>
<g transform="matrix(1.25,0,0,-1.25,90.349347,157.6)" id="g69136"
class="style-01">
  <g id="g69138">
    <path d="M 0,0 2,0" id="path69146"
    inkscape:connector-curvature="0" class="style-04" />
  </g>
</g>
<g transform="matrix(1.25,0,0,-1.25,90.349347,154.4)" id="g69160"
class="style-01">
  <g id="g69162">
    <path d="M 0,0 2,0" id="path69170"
    inkscape:connector-curvature="0" class="style-04" />
  </g>
</g>
<g transform="matrix(1.25,0,0,-1.25,90.349347,151.2)" id="g69184"
class="style-01">
  <g id="g69186">
    <path d="M 0,0 2,0" id="path69194"
    inkscape:connector-curvature="0" class="style-04" />
  </g>
</g>
<g transform="matrix(1.25,0,0,-1.25,90.349347,148)" id="g69208"
class="style-01">
  <g id="g69210">
    <path d="M 0,0 2,0" id="path69218"
    inkscape:connector-curvature="0" class="style-04" />
  </g>
</g>
<g transform="matrix(1.25,0,0,-1.25,90.349347,144.8)" id="g69232"
class="style-01">
  <g id="g69234">
    <path d="M 0,0 2,0" id="path69242"
    inkscape:connector-curvature="0" class="style-04" />
  </g>
</g>
<g transform="matrix(1.25,0,0,-1.25,90.349347,141.6)" id="g69256"
class="style-01">
  <g id="g69258">
    <path d="M 0,0 2,0" id="path69266"
    inkscape:connector-curvature="0" class="style-04" />
  </g>
</g>
<g transform="matrix(1.25,0,0,-1.25,90.349347,138.4)" id="g69280"
class="style-01">
  <g id="g69282">
    <path d="M 0,0 2,0" id="path69290"
    inkscape:connector-curvature="0" class="style-04" />
  </g>
</g>
<g transform="matrix(1.25,0,0,-1.25,90.349347,135.2)" id="g69304"
class="style-01">
  <g id="g69306">
    <path d="M 0,0 2,0" id="path69314"
    inkscape:connector-curvature="0" class="style-04" />
  </g>
</g>
<g transform="matrix(1.25,0,0,-1.25,90.349347,132)" id="g69328"
class="style-01">
  <g id="g69330">
    <path d="M 0,0 2,0" id="path69338"
    inkscape:connector-curvature="0" class="style-04" />
  </g>
</g>
<g transform="matrix(1.25,0,0,-1.25,90.349347,128.8)" id="g69352"
class="style-01">
  <g id="g69354">
    <path d="M 0,0 2,0" id="path69362"
    inkscape:connector-curvature="0" class="style-04" />
  </g>
</g>
<g transform="matrix(1.25,0,0,-1.25,90.349347,125.6)" id="g69376"
class="style-01">
  <g id="g69378">
    <path d="M 0,0 2,0" id="path69386"
    inkscape:connector-curvature="0" class="style-04" />
  </g>
</g>
<g transform="matrix(1.25,0,0,-1.25,90.349347,122.4)" id="g69400"
class="style-01">
  <g id="g69402">
    <path d="M 0,0 2,0" id="path69410"
    inkscape:connector-curvature="0" class="style-04" />
  </g>
</g>
<g transform="matrix(1.25,0,0,-1.25,90.349347,119.2)" id="g69424"
class="style-01">
  <g id="g69426">
    <path d="M 0,0 2,0" id="path69434"
    inkscape:connector-curvature="0" class="style-04" />
  </g>
</g>
<g transform="matrix(1.25,0,0,-1.25,90.349347,116)" id="g69448"
class="style-01">
  <g id="g69450">
    <path d="M 0,0 2,0" id="path69458"
    inkscape:connector-curvature="0" class="style-04" />
  </g>
</g>
<g transform="matrix(1.25,0,0,-1.25,90.349347,112.8)" id="g69472"
class="style-01">
  <g id="g69474">
    <path d="M 0,0 2,0" id="path69482"
    inkscape:connector-curvature="0" class="style-04" />
  </g>
</g>
<g transform="matrix(1.25,0,0,-1.25,90.349347,109.6)" id="g69496"
class="style-01">
  <g id="g69498">
    <path d="M 0,0 2,0" id="path69506"
    inkscape:connector-curvature="0" class="style-04" />
  </g>
</g>
<g transform="matrix(1.25,0,0,-1.25,90.349347,106.4)" id="g69520"
class="style-01">
  <g id="g69522">
    <path d="M 0,0 2,0" id="path69530"
    inkscape:connector-curvature="0" class="style-04" />
  </g>
</g>
<g transform="matrix(1.25,0,0,-1.25,90.349347,103.2)" id="g69544"
class="style-01">
  <g id="g69546">
    <path d="M 0,0 2,0" id="path69554"
    inkscape:connector-curvature="0" class="style-04" />
  </g>
</g>
<g transform="matrix(1.25,0,0,-1.25,90.349347,100)" id="g69568"
class="style-01">
  <g id="g69570">
    <path d="M 0,0 2,0" id="path69578"
    inkscape:connector-curvature="0" class="style-04" />
  </g>
</g>
<g transform="matrix(1.25,0,0,-1.25,90.349347,96.8)" id="g69592"
class="style-01">
  <g id="g69594">
    <path d="M 0,0 2,0" id="path69602"
    inkscape:connector-curvature="0" class="style-04" />
  </g>
</g>
<g transform="matrix(1.25,0,0,-1.25,90.349347,93.6)" id="g69616"
class="style-01">
  <g id="g69618">
    <path d="M 0,0 2,0" id="path69626"
    inkscape:connector-curvature="0" class="style-04" />
  </g>
</g>
<g transform="matrix(1.25,0,0,-1.25,90.349347,90.4)" id="g69640"
class="style-01">
  <g id="g69642">
    <path d="M 0,0 2,0" id="path69650"
    inkscape:connector-curvature="0" class="style-04" />
  </g>
</g>
<g transform="matrix(1.25,0,0,-1.25,90.349347,87.2)" id="g69664"
class="style-01">
  <g id="g69666">
    <path d="M 0,0 2,0" id="path69674"
    inkscape:connector-curvature="0" class="style-04" />
  </g>
</g>
<g transform="matrix(1.25,0,0,-1.25,90.349347,84)" id="g69688"
class="style-01">
  <g id="g69690">
    <path d="M 0,0 2,0" id="path69698"
    inkscape:connector-curvature="0" class="style-04" />
  </g>
</g>
<g transform="matrix(1.25,0,0,-1.25,90.349347,80.8)" id="g69712"
class="style-01">
  <g id="g69714">
    <path d="M 0,0 2,0" id="path69722"
    inkscape:connector-curvature="0" class="style-04" />
  </g>
</g>
<g transform="matrix(1.25,0,0,-1.25,90.349347,77.6)" id="g69736"
class="style-01">
  <g id="g69738">
    <path d="M 0,0 2,0" id="path69746"
    inkscape:connector-curvature="0" class="style-04" />
  </g>
</g>
<g transform="matrix(1.25,0,0,-1.25,90.349347,74.4)" id="g69760"
class="style-01">
  <g id="g69762">
    <path d="M 0,0 2,0" id="path69770"
    inkscape:connector-curvature="0" class="style-04" />
  </g>
</g>
<g transform="matrix(1.25,0,0,-1.25,90.349347,71.2)" id="g69784"
class="style-01">
  <g id="g69786">
    <path d="M 0,0 2,0" id="path69794"
    inkscape:connector-curvature="0" class="style-04" />
  </g>
</g>
<g transform="matrix(1.25,0,0,-1.25,90.349347,68)" id="g69808"
class="style-01">
  <g id="g69810">
    <path d="M 0,0 2,0" id="path69818"
    inkscape:connector-curvature="0" class="style-04" />
  </g>
</g>
<g transform="matrix(1.25,0,0,-1.25,90.349347,64.8)" id="g69832"
class="style-01">
  <g id="g69834">
    <path d="M 0,0 2,0" id="path69842"
    inkscape:connector-curvature="0" class="style-04" />
  </g>
</g>
<g transform="matrix(1.25,0,0,-1.25,90.349347,61.6)" id="g69856"
class="style-01">
  <g id="g69858">
    <path d="M 0,0 2,0" id="path69866"
    inkscape:connector-curvature="0" class="style-04" />
  </g>
</g>
<g transform="matrix(1.25,0,0,-1.25,90.349347,58.4)" id="g69880"
class="style-01">
  <g id="g69882">
    <path d="M 0,0 2,0" id="path69890"
    inkscape:connector-curvature="0" class="style-04" />
  </g>
</g>
<g transform="matrix(1.25,0,0,-1.25,90.349347,55.2)" id="g69904"
class="style-01">
  <g id="g69906">
    <path d="M 0,0 2,0" id="path69914"
    inkscape:connector-curvature="0" class="style-04" />
  </g>
</g>
<g transform="matrix(1.25,0,0,-1.25,90.349347,52)" id="g69928"
class="style-01">
  <g id="g69930">
    <path d="M 0,0 2,0" id="path69938"
    inkscape:connector-curvature="0" class="style-04" />
  </g>
</g>
<g transform="matrix(1.25,0,0,-1.25,90.349347,48.8)" id="g69952"
class="style-01">
  <g id="g69954">
    <path d="M 0,0 2,0" id="path69962"
    inkscape:connector-curvature="0" class="style-04" />
  </g>
</g>
<g transform="matrix(1.25,0,0,-1.25,90.349347,45.6)" id="g69976"
class="style-01">
  <g id="g69978">
    <path d="M 0,0 2,0" id="path69986"
    inkscape:connector-curvature="0" class="style-04" />
  </g>
</g>
<g transform="matrix(1.25,0,0,-1.25,90.349347,42.4)" id="g70000"
class="style-01">
  <g id="g70002">
    <path d="M 0,0 2,0" id="path70010"
    inkscape:connector-curvature="0" class="style-04" />
  </g>
</g>
<g transform="matrix(1.25,0,0,-1.25,90.349347,39.2)" id="g70024"
class="style-01">
  <g id="g70026">
    <path d="M 0,0 2,0" id="path70034"
    inkscape:connector-curvature="0" class="style-04" />
  </g>
</g>
<g transform="matrix(1.25,0,0,-1.25,90.349347,36)" id="g70048"
class="style-01">
  <g id="g70050">
    <path d="M 0,0 2,0" id="path70058"
    inkscape:connector-curvature="0" class="style-04" />
  </g>
</g>
<text y="51.736065" x="-222.0508" transform="matrix(0,-1,1,0,0,0)"
id="text70072" class="style-15">
  <tspan x="-222.0508 -213.36079 -209.53828 -201.08205 -192.94203 -184.51329 -179.12329 -175.30078 -166.88579 -158.16829 -153.79579 -148.43329 -143.59329 -138.20329"
  y="51.736065" id="tspan70074" class="style-17">Elevation
  (ft)</tspan>
</text>
</g>
</svg>
