<?xml version="1.0" encoding="utf-8" standalone="no"?>
<!-- Created with Inkscape (http://www.inkscape.org/) -->
<?xml-stylesheet href="AT_svg.css" type="text/css"?>
<svg xmlns:dc="http://purl.org/dc/elements/1.1/" xmlns:cc="http://creativecommons.org/ns#"
xmlns:rdf="http://www.w3.org/1999/02/22-rdf-syntax-ns#" xmlns:svg="http://www.w3.org/2000/svg"
xmlns="http://www.w3.org/2000/svg" xmlns:sodipodi="http://sodipodi.sourceforge.net/DTD/sodipodi-0.dtd"
xmlns:inkscape="http://www.inkscape.org/namespaces/inkscape" version="1.1" width="5" height="288.625" id="svg3004"
xml:space="preserve" inkscape:version="0.48.2 r9819" sodipodi:docname="grid_right.svg">
  
<sodipodi:namedview pagecolor="#ffffff" bordercolor="#666666" borderopacity="1" objecttolerance="10" gridtolerance="10"
guidetolerance="10" inkscape:pageopacity="0" inkscape:pageshadow="2" inkscape:window-width="1680"
inkscape:window-height="1002" id="namedview97504" showgrid="false" inkscape:zoom="1" inkscape:cx="343.94073"
inkscape:cy="84.3125" inkscape:window-x="0" inkscape:window-y="0" inkscape:window-maximized="0"
inkscape:current-layer="svg3004" fit-margin-top="0" fit-margin-left="0" fit-margin-right="0" fit-margin-bottom="0" />
  
<metadata id="metadata3010">
    
<rdf:RDF>
      
<cc:Work rdf:about="">
        
<dc:format>image/svg+xml</dc:format>
        
<dc:type rdf:resource="http://purl.org/dc/dcmitype/StillImage" />
        
<dc:title />
      </cc:Work>
    </rdf:RDF>
  </metadata>
  
<defs id="defs3008" />
  
<g id="g51498" transform="translate(-0.3125,-35.6875)">
    
<g transform="matrix(1.25,0,0,-1.25,5.3125,308)" id="g67648" class="style-01">
      
<g id="g67650">
        
<path d="M 0,0 -4,0" id="path67658" inkscape:connector-curvature="0" class="style-04" />
      </g>
    </g>
    
<g transform="matrix(1.25,0,0,-1.25,5.3125,276)" id="g67676" class="style-01">
      
<g id="g67678">
        
<path d="M 0,0 -4,0" id="path67686" inkscape:connector-curvature="0" class="style-04" />
      </g>
    </g>
    
<g transform="matrix(1.25,0,0,-1.25,5.3125,244)" id="g67704" class="style-01">
      
<g id="g67706">
        
<path d="M 0,0 -4,0" id="path67714" inkscape:connector-curvature="0" class="style-04" />
      </g>
    </g>
    
<g transform="matrix(1.25,0,0,-1.25,5.3125,212)" id="g67732" class="style-01">
      
<g id="g67734">
        
<path d="M 0,0 -4,0" id="path67742" inkscape:connector-curvature="0" class="style-04" />
      </g>
    </g>
    
<g transform="matrix(1.25,0,0,-1.25,5.3125,180)" id="g67760" class="style-01">
      
<g id="g67762">
        
<path d="M 0,0 -4,0" id="path67770" inkscape:connector-curvature="0" class="style-04" />
      </g>
    </g>
    
<g transform="matrix(1.25,0,0,-1.25,5.3125,148)" id="g67788" class="style-01">
      
<g id="g67790">
        
<path d="M 0,0 -4,0" id="path67798" inkscape:connector-curvature="0" class="style-04" />
      </g>
    </g>
    
<g transform="matrix(1.25,0,0,-1.25,5.3125,116)" id="g67816" class="style-01">
      
<g id="g67818">
        
<path d="M 0,0 -4,0" id="path67826" inkscape:connector-curvature="0" class="style-04" />
      </g>
    </g>
    
<g transform="matrix(1.25,0,0,-1.25,5.3125,84)" id="g67844" class="style-01">
      
<g id="g67846">
        
<path d="M 0,0 -4,0" id="path67854" inkscape:connector-curvature="0" class="style-04" />
      </g>
    </g>
    
<g transform="matrix(1.25,0,0,-1.25,5.3125,52)" id="g67872" class="style-01">
      
<g id="g67874">
        
<path d="M 0,0 -4,0" id="path67882" inkscape:connector-curvature="0" class="style-04" />
      </g>
    </g>
    
<g transform="matrix(1.25,0,0,-1.25,5.3125,324)" id="g67900" class="style-01">
      
<g id="g67902">
        
<path d="M 0,0 -2,0" id="path67910" inkscape:connector-curvature="0" class="style-04" />
      </g>
    </g>
    
<g transform="matrix(1.25,0,0,-1.25,5.3125,320.8)" id="g67924" class="style-01">
      
<g id="g67926">
        
<path d="M 0,0 -2,0" id="path67934" inkscape:connector-curvature="0" class="style-04" />
      </g>
    </g>
    
<g transform="matrix(1.25,0,0,-1.25,5.3125,317.6)" id="g67948" class="style-01">
      
<g id="g67950">
        
<path d="M 0,0 -2,0" id="path67958" inkscape:connector-curvature="0" class="style-04" />
      </g>
    </g>
    
<g transform="matrix(1.25,0,0,-1.25,5.3125,314.4)" id="g67972" class="style-01">
      
<g id="g67974">
        
<path d="M 0,0 -2,0" id="path67982" inkscape:connector-curvature="0" class="style-04" />
      </g>
    </g>
    
<g transform="matrix(1.25,0,0,-1.25,5.3125,311.2)" id="g67996" class="style-01">
      
<g id="g67998">
        
<path d="M 0,0 -2,0" id="path68006" inkscape:connector-curvature="0" class="style-04" />
      </g>
    </g>
    
<g transform="matrix(1.25,0,0,-1.25,5.3125,308)" id="g68020" class="style-01">
      
<g id="g68022">
        
<path d="M 0,0 -2,0" id="path68030" inkscape:connector-curvature="0" class="style-04" />
      </g>
    </g>
    
<g transform="matrix(1.25,0,0,-1.25,5.3125,304.8)" id="g68044" class="style-01">
      
<g id="g68046">
        
<path d="M 0,0 -2,0" id="path68054" inkscape:connector-curvature="0" class="style-04" />
      </g>
    </g>
    
<g transform="matrix(1.25,0,0,-1.25,5.3125,301.6)" id="g68068" class="style-01">
      
<g id="g68070">
        
<path d="M 0,0 -2,0" id="path68078" inkscape:connector-curvature="0" class="style-04" />
      </g>
    </g>
    
<g transform="matrix(1.25,0,0,-1.25,5.3125,298.4)" id="g68092" class="style-01">
      
<g id="g68094">
        
<path d="M 0,0 -2,0" id="path68102" inkscape:connector-curvature="0" class="style-04" />
      </g>
    </g>
    
<g transform="matrix(1.25,0,0,-1.25,5.3125,295.2)" id="g68116" class="style-01">
      
<g id="g68118">
        
<path d="M 0,0 -2,0" id="path68126" inkscape:connector-curvature="0" class="style-04" />
      </g>
    </g>
    
<g transform="matrix(1.25,0,0,-1.25,5.3125,292)" id="g68140" class="style-01">
      
<g id="g68142">
        
<path d="M 0,0 -2,0" id="path68150" inkscape:connector-curvature="0" class="style-04" />
      </g>
    </g>
    
<g transform="matrix(1.25,0,0,-1.25,5.3125,288.8)" id="g68164" class="style-01">
      
<g id="g68166">
        
<path d="M 0,0 -2,0" id="path68174" inkscape:connector-curvature="0" class="style-04" />
      </g>
    </g>
    
<g transform="matrix(1.25,0,0,-1.25,5.3125,285.6)" id="g68188" class="style-01">
      
<g id="g68190">
        
<path d="M 0,0 -2,0" id="path68198" inkscape:connector-curvature="0" class="style-04" />
      </g>
    </g>
    
<g transform="matrix(1.25,0,0,-1.25,5.3125,282.4)" id="g68212" class="style-01">
      
<g id="g68214">
        
<path d="M 0,0 -2,0" id="path68222" inkscape:connector-curvature="0" class="style-04" />
      </g>
    </g>
    
<g transform="matrix(1.25,0,0,-1.25,5.3125,279.2)" id="g68236" class="style-01">
      
<g id="g68238">
        
<path d="M 0,0 -2,0" id="path68246" inkscape:connector-curvature="0" class="style-04" />
      </g>
    </g>
    
<g transform="matrix(1.25,0,0,-1.25,5.3125,276)" id="g68260" class="style-01">
      
<g id="g68262">
        
<path d="M 0,0 -2,0" id="path68270" inkscape:connector-curvature="0" class="style-04" />
      </g>
    </g>
    
<g transform="matrix(1.25,0,0,-1.25,5.3125,272.8)" id="g68284" class="style-01">
      
<g id="g68286">
        
<path d="M 0,0 -2,0" id="path68294" inkscape:connector-curvature="0" class="style-04" />
      </g>
    </g>
    
<g transform="matrix(1.25,0,0,-1.25,5.3125,269.6)" id="g68308" class="style-01">
      
<g id="g68310">
        
<path d="M 0,0 -2,0" id="path68318" inkscape:connector-curvature="0" class="style-04" />
      </g>
    </g>
    
<g transform="matrix(1.25,0,0,-1.25,5.3125,266.4)" id="g68332" class="style-01">
      
<g id="g68334">
        
<path d="M 0,0 -2,0" id="path68342" inkscape:connector-curvature="0" class="style-04" />
      </g>
    </g>
    
<g transform="matrix(1.25,0,0,-1.25,5.3125,263.2)" id="g68356" class="style-01">
      
<g id="g68358">
        
<path d="M 0,0 -2,0" id="path68366" inkscape:connector-curvature="0" class="style-04" />
      </g>
    </g>
    
<g transform="matrix(1.25,0,0,-1.25,5.3125,260)" id="g68380" class="style-01">
      
<g id="g68382">
        
<path d="M 0,0 -2,0" id="path68390" inkscape:connector-curvature="0" class="style-04" />
      </g>
    </g>
    
<g transform="matrix(1.25,0,0,-1.25,5.3125,256.8)" id="g68404" class="style-01">
      
<g id="g68406">
        
<path d="M 0,0 -2,0" id="path68414" inkscape:connector-curvature="0" class="style-04" />
      </g>
    </g>
    
<g transform="matrix(1.25,0,0,-1.25,5.3125,253.6)" id="g68428" class="style-01">
      
<g id="g68430">
        
<path d="M 0,0 -2,0" id="path68438" inkscape:connector-curvature="0" class="style-04" />
      </g>
    </g>
    
<g transform="matrix(1.25,0,0,-1.25,5.3125,250.4)" id="g68452" class="style-01">
      
<g id="g68454">
        
<path d="M 0,0 -2,0" id="path68462" inkscape:connector-curvature="0" class="style-04" />
      </g>
    </g>
    
<g transform="matrix(1.25,0,0,-1.25,5.3125,247.2)" id="g68476" class="style-01">
      
<g id="g68478">
        
<path d="M 0,0 -2,0" id="path68486" inkscape:connector-curvature="0" class="style-04" />
      </g>
    </g>
    
<g transform="matrix(1.25,0,0,-1.25,5.3125,244)" id="g68500" class="style-01">
      
<g id="g68502">
        
<path d="M 0,0 -2,0" id="path68510" inkscape:connector-curvature="0" class="style-04" />
      </g>
    </g>
    
<g transform="matrix(1.25,0,0,-1.25,5.3125,240.8)" id="g68524" class="style-01">
      
<g id="g68526">
        
<path d="M 0,0 -2,0" id="path68534" inkscape:connector-curvature="0" class="style-04" />
      </g>
    </g>
    
<g transform="matrix(1.25,0,0,-1.25,5.3125,237.6)" id="g68548" class="style-01">
      
<g id="g68550">
        
<path d="M 0,0 -2,0" id="path68558" inkscape:connector-curvature="0" class="style-04" />
      </g>
    </g>
    
<g transform="matrix(1.25,0,0,-1.25,5.3125,234.4)" id="g68572" class="style-01">
      
<g id="g68574">
        
<path d="M 0,0 -2,0" id="path68582" inkscape:connector-curvature="0" class="style-04" />
      </g>
    </g>
    
<g transform="matrix(1.25,0,0,-1.25,5.3125,231.2)" id="g68596" class="style-01">
      
<g id="g68598">
        
<path d="M 0,0 -2,0" id="path68606" inkscape:connector-curvature="0" class="style-04" />
      </g>
    </g>
    
<g transform="matrix(1.25,0,0,-1.25,5.3125,228)" id="g68620" class="style-01">
      
<g id="g68622">
        
<path d="M 0,0 -2,0" id="path68630" inkscape:connector-curvature="0" class="style-04" />
      </g>
    </g>
    
<g transform="matrix(1.25,0,0,-1.25,5.3125,224.8)" id="g68644" class="style-01">
      
<g id="g68646">
        
<path d="M 0,0 -2,0" id="path68654" inkscape:connector-curvature="0" class="style-04" />
      </g>
    </g>
    
<g transform="matrix(1.25,0,0,-1.25,5.3125,221.6)" id="g68668" class="style-01">
      
<g id="g68670">
        
<path d="M 0,0 -2,0" id="path68678" inkscape:connector-curvature="0" class="style-04" />
      </g>
    </g>
    
<g transform="matrix(1.25,0,0,-1.25,5.3125,218.4)" id="g68692" class="style-01">
      
<g id="g68694">
        
<path d="M 0,0 -2,0" id="path68702" inkscape:connector-curvature="0" class="style-04" />
      </g>
    </g>
    
<g transform="matrix(1.25,0,0,-1.25,5.3125,215.2)" id="g68716" class="style-01">
      
<g id="g68718">
        
<path d="M 0,0 -2,0" id="path68726" inkscape:connector-curvature="0" class="style-04" />
      </g>
    </g>
    
<g transform="matrix(1.25,0,0,-1.25,5.3125,212)" id="g68740" class="style-01">
      
<g id="g68742">
        
<path d="M 0,0 -2,0" id="path68750" inkscape:connector-curvature="0" class="style-04" />
      </g>
    </g>
    
<g transform="matrix(1.25,0,0,-1.25,5.3125,208.8)" id="g68764" class="style-01">
      
<g id="g68766">
        
<path d="M 0,0 -2,0" id="path68774" inkscape:connector-curvature="0" class="style-04" />
      </g>
    </g>
    
<g transform="matrix(1.25,0,0,-1.25,5.3125,205.6)" id="g68788" class="style-01">
      
<g id="g68790">
        
<path d="M 0,0 -2,0" id="path68798" inkscape:connector-curvature="0" class="style-04" />
      </g>
    </g>
    
<g transform="matrix(1.25,0,0,-1.25,5.3125,202.4)" id="g68812" class="style-01">
      
<g id="g68814">
        
<path d="M 0,0 -2,0" id="path68822" inkscape:connector-curvature="0" class="style-04" />
      </g>
    </g>
    
<g transform="matrix(1.25,0,0,-1.25,5.3125,199.2)" id="g68836" class="style-01">
      
<g id="g68838">
        
<path d="M 0,0 -2,0" id="path68846" inkscape:connector-curvature="0" class="style-04" />
      </g>
    </g>
    
<g transform="matrix(1.25,0,0,-1.25,5.3125,196)" id="g68860" class="style-01">
      
<g id="g68862">
        
<path d="M 0,0 -2,0" id="path68870" inkscape:connector-curvature="0" class="style-04" />
      </g>
    </g>
    
<g transform="matrix(1.25,0,0,-1.25,5.3125,192.8)" id="g68884" class="style-01">
      
<g id="g68886">
        
<path d="M 0,0 -2,0" id="path68894" inkscape:connector-curvature="0" class="style-04" />
      </g>
    </g>
    
<g transform="matrix(1.25,0,0,-1.25,5.3125,189.6)" id="g68908" class="style-01">
      
<g id="g68910">
        
<path d="M 0,0 -2,0" id="path68918" inkscape:connector-curvature="0" class="style-04" />
      </g>
    </g>
    
<g transform="matrix(1.25,0,0,-1.25,5.3125,186.4)" id="g68932" class="style-01">
      
<g id="g68934">
        
<path d="M 0,0 -2,0" id="path68942" inkscape:connector-curvature="0" class="style-04" />
      </g>
    </g>
    
<g transform="matrix(1.25,0,0,-1.25,5.3125,183.2)" id="g68956" class="style-01">
      
<g id="g68958">
        
<path d="M 0,0 -2,0" id="path68966" inkscape:connector-curvature="0" class="style-04" />
      </g>
    </g>
    
<g transform="matrix(1.25,0,0,-1.25,5.3125,180)" id="g68980" class="style-01">
      
<g id="g68982">
        
<path d="M 0,0 -2,0" id="path68990" inkscape:connector-curvature="0" class="style-04" />
      </g>
    </g>
    
<g transform="matrix(1.25,0,0,-1.25,5.3125,176.8)" id="g69004" class="style-01">
      
<g id="g69006">
        
<path d="M 0,0 -2,0" id="path69014" inkscape:connector-curvature="0" class="style-04" />
      </g>
    </g>
    
<g transform="matrix(1.25,0,0,-1.25,5.3125,173.6)" id="g69028" class="style-01">
      
<g id="g69030">
        
<path d="M 0,0 -2,0" id="path69038" inkscape:connector-curvature="0" class="style-04" />
      </g>
    </g>
    
<g transform="matrix(1.25,0,0,-1.25,5.3125,170.4)" id="g69052" class="style-01">
      
<g id="g69054">
        
<path d="M 0,0 -2,0" id="path69062" inkscape:connector-curvature="0" class="style-04" />
      </g>
    </g>
    
<g transform="matrix(1.25,0,0,-1.25,5.3125,167.2)" id="g69076" class="style-01">
      
<g id="g69078">
        
<path d="M 0,0 -2,0" id="path69086" inkscape:connector-curvature="0" class="style-04" />
      </g>
    </g>
    
<g transform="matrix(1.25,0,0,-1.25,5.3125,164)" id="g69100" class="style-01">
      
<g id="g69102">
        
<path d="M 0,0 -2,0" id="path69110" inkscape:connector-curvature="0" class="style-04" />
      </g>
    </g>
    
<g transform="matrix(1.25,0,0,-1.25,5.3125,160.8)" id="g69124" class="style-01">
      
<g id="g69126">
        
<path d="M 0,0 -2,0" id="path69134" inkscape:connector-curvature="0" class="style-04" />
      </g>
    </g>
    
<g transform="matrix(1.25,0,0,-1.25,5.3125,157.6)" id="g69148" class="style-01">
      
<g id="g69150">
        
<path d="M 0,0 -2,0" id="path69158" inkscape:connector-curvature="0" class="style-04" />
      </g>
    </g>
    
<g transform="matrix(1.25,0,0,-1.25,5.3125,154.4)" id="g69172" class="style-01">
      
<g id="g69174">
        
<path d="M 0,0 -2,0" id="path69182" inkscape:connector-curvature="0" class="style-04" />
      </g>
    </g>
    
<g transform="matrix(1.25,0,0,-1.25,5.3125,151.2)" id="g69196" class="style-01">
      
<g id="g69198">
        
<path d="M 0,0 -2,0" id="path69206" inkscape:connector-curvature="0" class="style-04" />
      </g>
    </g>
    
<g transform="matrix(1.25,0,0,-1.25,5.3125,148)" id="g69220" class="style-01">
      
<g id="g69222">
        
<path d="M 0,0 -2,0" id="path69230" inkscape:connector-curvature="0" class="style-04" />
      </g>
    </g>
    
<g transform="matrix(1.25,0,0,-1.25,5.3125,144.8)" id="g69244" class="style-01">
      
<g id="g69246">
        
<path d="M 0,0 -2,0" id="path69254" inkscape:connector-curvature="0" class="style-04" />
      </g>
    </g>
    
<g transform="matrix(1.25,0,0,-1.25,5.3125,141.6)" id="g69268" class="style-01">
      
<g id="g69270">
        
<path d="M 0,0 -2,0" id="path69278" inkscape:connector-curvature="0" class="style-04" />
      </g>
    </g>
    
<g transform="matrix(1.25,0,0,-1.25,5.3125,138.4)" id="g69292" class="style-01">
      
<g id="g69294">
        
<path d="M 0,0 -2,0" id="path69302" inkscape:connector-curvature="0" class="style-04" />
      </g>
    </g>
    
<g transform="matrix(1.25,0,0,-1.25,5.3125,135.2)" id="g69316" class="style-01">
      
<g id="g69318">
        
<path d="M 0,0 -2,0" id="path69326" inkscape:connector-curvature="0" class="style-04" />
      </g>
    </g>
    
<g transform="matrix(1.25,0,0,-1.25,5.3125,132)" id="g69340" class="style-01">
      
<g id="g69342">
        
<path d="M 0,0 -2,0" id="path69350" inkscape:connector-curvature="0" class="style-04" />
      </g>
    </g>
    
<g transform="matrix(1.25,0,0,-1.25,5.3125,128.8)" id="g69364" class="style-01">
      
<g id="g69366">
        
<path d="M 0,0 -2,0" id="path69374" inkscape:connector-curvature="0" class="style-04" />
      </g>
    </g>
    
<g transform="matrix(1.25,0,0,-1.25,5.3125,125.6)" id="g69388" class="style-01">
      
<g id="g69390">
        
<path d="M 0,0 -2,0" id="path69398" inkscape:connector-curvature="0" class="style-04" />
      </g>
    </g>
    
<g transform="matrix(1.25,0,0,-1.25,5.3125,122.4)" id="g69412" class="style-01">
      
<g id="g69414">
        
<path d="M 0,0 -2,0" id="path69422" inkscape:connector-curvature="0" class="style-04" />
      </g>
    </g>
    
<g transform="matrix(1.25,0,0,-1.25,5.3125,119.2)" id="g69436" class="style-01">
      
<g id="g69438">
        
<path d="M 0,0 -2,0" id="path69446" inkscape:connector-curvature="0" class="style-04" />
      </g>
    </g>
    
<g transform="matrix(1.25,0,0,-1.25,5.3125,116)" id="g69460" class="style-01">
      
<g id="g69462">
        
<path d="M 0,0 -2,0" id="path69470" inkscape:connector-curvature="0" class="style-04" />
      </g>
    </g>
    
<g transform="matrix(1.25,0,0,-1.25,5.3125,112.8)" id="g69484" class="style-01">
      
<g id="g69486">
        
<path d="M 0,0 -2,0" id="path69494" inkscape:connector-curvature="0" class="style-04" />
      </g>
    </g>
    
<g transform="matrix(1.25,0,0,-1.25,5.3125,109.6)" id="g69508" class="style-01">
      
<g id="g69510">
        
<path d="M 0,0 -2,0" id="path69518" inkscape:connector-curvature="0" class="style-04" />
      </g>
    </g>
    
<g transform="matrix(1.25,0,0,-1.25,5.3125,106.4)" id="g69532" class="style-01">
      
<g id="g69534">
        
<path d="M 0,0 -2,0" id="path69542" inkscape:connector-curvature="0" class="style-04" />
      </g>
    </g>
    
<g transform="matrix(1.25,0,0,-1.25,5.3125,103.2)" id="g69556" class="style-01">
      
<g id="g69558">
        
<path d="M 0,0 -2,0" id="path69566" inkscape:connector-curvature="0" class="style-04" />
      </g>
    </g>
    
<g transform="matrix(1.25,0,0,-1.25,5.3125,100)" id="g69580" class="style-01">
      
<g id="g69582">
        
<path d="M 0,0 -2,0" id="path69590" inkscape:connector-curvature="0" class="style-04" />
      </g>
    </g>
    
<g transform="matrix(1.25,0,0,-1.25,5.3125,96.8)" id="g69604" class="style-01">
      
<g id="g69606">
        
<path d="M 0,0 -2,0" id="path69614" inkscape:connector-curvature="0" class="style-04" />
      </g>
    </g>
    
<g transform="matrix(1.25,0,0,-1.25,5.3125,93.6)" id="g69628" class="style-01">
      
<g id="g69630">
        
<path d="M 0,0 -2,0" id="path69638" inkscape:connector-curvature="0" class="style-04" />
      </g>
    </g>
    
<g transform="matrix(1.25,0,0,-1.25,5.3125,90.4)" id="g69652" class="style-01">
      
<g id="g69654">
        
<path d="M 0,0 -2,0" id="path69662" inkscape:connector-curvature="0" class="style-04" />
      </g>
    </g>
    
<g transform="matrix(1.25,0,0,-1.25,5.3125,87.2)" id="g69676" class="style-01">
      
<g id="g69678">
        
<path d="M 0,0 -2,0" id="path69686" inkscape:connector-curvature="0" class="style-04" />
      </g>
    </g>
    
<g transform="matrix(1.25,0,0,-1.25,5.3125,84)" id="g69700" class="style-01">
      
<g id="g69702">
        
<path d="M 0,0 -2,0" id="path69710" inkscape:connector-curvature="0" class="style-04" />
      </g>
    </g>
    
<g transform="matrix(1.25,0,0,-1.25,5.3125,80.8)" id="g69724" class="style-01">
      
<g id="g69726">
        
<path d="M 0,0 -2,0" id="path69734" inkscape:connector-curvature="0" class="style-04" />
      </g>
    </g>
    
<g transform="matrix(1.25,0,0,-1.25,5.3125,77.6)" id="g69748" class="style-01">
      
<g id="g69750">
        
<path d="M 0,0 -2,0" id="path69758" inkscape:connector-curvature="0" class="style-04" />
      </g>
    </g>
    
<g transform="matrix(1.25,0,0,-1.25,5.3125,74.4)" id="g69772" class="style-01">
      
<g id="g69774">
        
<path d="M 0,0 -2,0" id="path69782" inkscape:connector-curvature="0" class="style-04" />
      </g>
    </g>
    
<g transform="matrix(1.25,0,0,-1.25,5.3125,71.2)" id="g69796" class="style-01">
      
<g id="g69798">
        
<path d="M 0,0 -2,0" id="path69806" inkscape:connector-curvature="0" class="style-04" />
      </g>
    </g>
    
<g transform="matrix(1.25,0,0,-1.25,5.3125,68)" id="g69820" class="style-01">
      
<g id="g69822">
        
<path d="M 0,0 -2,0" id="path69830" inkscape:connector-curvature="0" class="style-04" />
      </g>
    </g>
    
<g transform="matrix(1.25,0,0,-1.25,5.3125,64.8)" id="g69844" class="style-01">
      
<g id="g69846">
        
<path d="M 0,0 -2,0" id="path69854" inkscape:connector-curvature="0" class="style-04" />
      </g>
    </g>
    
<g transform="matrix(1.25,0,0,-1.25,5.3125,61.6)" id="g69868" class="style-01">
      
<g id="g69870">
        
<path d="M 0,0 -2,0" id="path69878" inkscape:connector-curvature="0" class="style-04" />
      </g>
    </g>
    
<g transform="matrix(1.25,0,0,-1.25,5.3125,58.4)" id="g69892" class="style-01">
      
<g id="g69894">
        
<path d="M 0,0 -2,0" id="path69902" inkscape:connector-curvature="0" class="style-04" />
      </g>
    </g>
    
<g transform="matrix(1.25,0,0,-1.25,5.3125,55.2)" id="g69916" class="style-01">
      
<g id="g69918">
        
<path d="M 0,0 -2,0" id="path69926" inkscape:connector-curvature="0" class="style-04" />
      </g>
    </g>
    
<g transform="matrix(1.25,0,0,-1.25,5.3125,52)" id="g69940" class="style-01">
      
<g id="g69942">
        
<path d="M 0,0 -2,0" id="path69950" inkscape:connector-curvature="0" class="style-04" />
      </g>
    </g>
    
<g transform="matrix(1.25,0,0,-1.25,5.3125,48.8)" id="g69964" class="style-01">
      
<g id="g69966">
        
<path d="M 0,0 -2,0" id="path69974" inkscape:connector-curvature="0" class="style-04" />
      </g>
    </g>
    
<g transform="matrix(1.25,0,0,-1.25,5.3125,45.6)" id="g69988" class="style-01">
      
<g id="g69990">
        
<path d="M 0,0 -2,0" id="path69998" inkscape:connector-curvature="0" class="style-04" />
      </g>
    </g>
    
<g transform="matrix(1.25,0,0,-1.25,5.3125,42.4)" id="g70012" class="style-01">
      
<g id="g70014">
        
<path d="M 0,0 -2,0" id="path70022" inkscape:connector-curvature="0" class="style-04" />
      </g>
    </g>
    
<g transform="matrix(1.25,0,0,-1.25,5.3125,39.2)" id="g70036" class="style-01">
      
<g id="g70038">
        
<path d="M 0,0 -2,0" id="path70046" inkscape:connector-curvature="0" class="style-04" />
      </g>
    </g>
    
<g transform="matrix(1.25,0,0,-1.25,5.3125,36)" id="g70060" class="style-01">
      
<g id="g70062">
        
<path d="M 0,0 -2,0" id="path70070" inkscape:connector-curvature="0" class="style-04" />
      </g>
    </g>
  </g>
</svg>
